<svg xmlns="http://www.w3.org/2000/svg" width="1200" height="800" viewBox="0 0 1200 800">
  <defs>
    <linearGradient id="bg" x1="0" y1="0" x2="1" y2="1">
      <stop offset="0%" stop-color="#f0f9ff"/>
      <stop offset="48%" stop-color="#e0f2fe"/>
      <stop offset="100%" stop-color="#bae6fd"/>
    </linearGradient>
    <linearGradient id="panel" x1="0" y1="0" x2="1" y2="1">
      <stop offset="0%" stop-color="#075985"/>
      <stop offset="100%" stop-color="#0284c7"/>
    </linearGradient>
    <filter id="shadow" x="-20%" y="-20%" width="140%" height="140%">
      <feDropShadow dx="0" dy="18" stdDeviation="24" flood-color="#292524" flood-opacity="0.16"/>
    </filter>
  </defs>
  <rect width="1200" height="800" fill="url(#bg)"/>
  <circle cx="1040" cy="120" r="210" fill="#ffffff" opacity="0.46"/>
  <circle cx="130" cy="700" r="260" fill="#ffffff" opacity="0.34"/>
  <rect x="82" y="76" width="1036" height="648" rx="32" fill="#ffffff" opacity="0.78" filter="url(#shadow)"/>
  <rect x="122" y="116" width="304" height="568" rx="28" fill="url(#panel)"/>
  
  <!-- Themed Graphics Inside Left Panel -->
  
        <!-- Ripple 1 -->
        <circle cx="274" cy="400" r="120" fill="none" stroke="#38bdf8" stroke-width="2" opacity="0.3" />
        <circle cx="274" cy="400" r="80" fill="none" stroke="#38bdf8" stroke-width="4" opacity="0.4" />
        <circle cx="274" cy="400" r="40" fill="none" stroke="#ffffff" stroke-width="6" opacity="0.6" />
        <!-- Floating bubbles -->
        <circle cx="200" cy="250" r="18" fill="none" stroke="#ffffff" stroke-width="2.5" opacity="0.7" />
        <circle cx="220" cy="230" r="6" fill="#ffffff" opacity="0.8" />
        <circle cx="320" cy="300" r="28" fill="none" stroke="#38bdf8" stroke-width="3" opacity="0.5" />
        <circle cx="340" cy="285" r="9" fill="#ffffff" opacity="0.6" />
        <circle cx="180" cy="480" r="24" fill="none" stroke="#38bdf8" stroke-width="2" opacity="0.5" />
        <circle cx="290" cy="520" r="15" fill="none" stroke="#ffffff" stroke-width="2" opacity="0.8" />
        <path d="M 150,550 Q 220,530 274,560 T 400,530" fill="none" stroke="#38bdf8" stroke-width="6" stroke-linecap="round" opacity="0.4" />
      
  
  <!-- Left Panel Branding Text -->
  <text x="160" y="188" fill="#fafaf9" font-family="Arial, Helvetica, sans-serif" font-size="25" letter-spacing="4">TRASOCHY</text>
  <text x="160" y="225" fill="#d6d3d1" font-family="Arial, Helvetica, sans-serif" font-size="13" letter-spacing="3">SKIN RESEARCH</text>
  
  <!-- Right Editorial Content -->
  <text x="488" y="166" fill="#0284c7" font-family="Arial, Helvetica, sans-serif" font-size="14" font-weight="bold" letter-spacing="4">TRASOCHY EDITORIAL REPORT</text>
  <text x="488" y="270" fill="#1c1917" font-family="Georgia, 'Times New Roman', serif" font-size="52" font-weight="500">护肤科普：干皮抗衰精华油</text>
  <text x="492" y="500" fill="#78716c" font-family="Arial, Helvetica, sans-serif" font-size="22">干皮抗衰精华油</text>
  <line x1="492" y1="588" x2="1032" y2="588" stroke="#d6d3d1"/>
  <text x="492" y="646" fill="#57534e" font-family="Arial, Helvetica, sans-serif" font-size="16"># 干皮抗衰精华油</text>
  <text x="492" y="690" fill="#a8a29e" font-family="Arial, Helvetica, sans-serif" font-size="13" letter-spacing="2">GENERATED FOR TRASOCHY SKINCARE INSTITUTE</text>
</svg>